<svg width="262" height="246.00000000000003" xmlns="http://www.w3.org/2000/svg">
 <defs>
  <linearGradient y2="1" y1="1" x2="1" x1="1" id="svg_13">
   <stop stop-color="#0095DA" offset="0"/>
   <stop stop-color="#00AEEE" offset="1"/>
  </linearGradient>
 </defs>
 <g>
  <title>background</title>
  <rect fill="none" id="canvas_background" height="248" width="264" y="-1" x="-1"/>
 </g>
 <g>
  <title>Layer 1</title>
  <polygon fill="#a0a4a5" id="svg_6" points="129.90358328819275,44.03965759277344 99.068927526474,14.039657592773438 14.068927526473999,14.039657592773438 14.068927526473999,75.27272033691406 254.068927526474,75.27272033691406 254.068927526474,44.03965759277344 " opacity="0.3"/>
  <path fill="url(#svg_13)" id="svg_7" opacity="0.3" d="m147.159042,170.878052c12.600006,-12.600525 12.600006,-33.105042 0,-45.705048c-6.301331,-6.299194 -14.577057,-9.448547 -22.853851,-9.448547c-8.27626,0 -16.552536,3.149353 -22.853867,9.448547c-12.600006,12.600006 -12.600006,33.104523 0,45.705048c12.602661,12.602692 33.105606,12.602692 45.707718,0z"/>
  <path fill="#a0a4a5" id="svg_8" opacity="0.3" d="m14.068928,160.289795l0,76.250122l119.999996,0l120,0l0,-76.250122l0,-75.017075l-239.999996,0l0,75.017075zm80.311993,-42.187744c16.498672,-16.498657 43.349869,-16.498657 59.849075,0c15.300262,15.301331 16.385071,39.489075 3.306122,56.082672l29.91095,29.913605l-7.069885,7.070404l-29.910919,-29.913605c-7.647461,6.028259 -16.897614,9.068817 -26.161072,9.068817c-10.837341,0 -21.674667,-4.126404 -29.924271,-12.375488c-16.499191,-16.499207 -16.499191,-43.347198 0,-59.846405z"/>
  <polygon id="svg_10" points="121.90359854698181,36.03965759277344 91.068927526474,6.0396575927734375 6.068927526473999,6.0396575927734375 6.068927526473999,67.27272033691406 246.068927526474,67.27272033691406 246.068927526474,36.03965759277344 " fill="url(#svg_13)"/>
  <path id="svg_11" fill="url(#svg_13)" d="m139.159042,162.878052c12.600006,-12.600525 12.600006,-33.105042 0,-45.705063c-6.301331,-6.299194 -14.577057,-9.448532 -22.853851,-9.448532c-8.27626,0 -16.552536,3.149338 -22.853867,9.448532c-12.600006,12.600021 -12.600006,33.104538 0,45.705063c12.602661,12.602692 33.105606,12.602692 45.707718,0z"/>
  <path id="svg_12" fill="url(#svg_13)" d="m6.068928,152.289795l0,76.250122l119.999996,0l120,0l0,-76.250122l0,-75.017075l-239.999996,0l0,75.017075zm80.311993,-42.187729c16.498672,-16.498672 43.349869,-16.498672 59.849075,0c15.300262,15.301315 16.385071,39.489059 3.306122,56.082657l29.91095,29.913605l-7.069885,7.070404l-29.910919,-29.913605c-7.647461,6.028259 -16.897598,9.068817 -26.161072,9.068817c-10.837341,0 -21.674667,-4.126404 -29.924271,-12.375488c-16.499191,-16.499207 -16.499191,-43.347198 0,-59.84639z"/>
 </g>
</svg>